<svg width="35" height="35" viewBox="0 0 35 35" fill="none" xmlns="http://www.w3.org/2000/svg">
<path d="M17.0811 21.0832C16.5585 21.0832 16.0703 20.987 15.6164 20.7944C15.1626 20.6019 14.7638 20.3337 14.4199 19.9899C14.0761 19.646 13.8079 19.2403 13.6154 18.7727C13.4228 18.3051 13.3266 17.81 13.3266 17.2874C13.3266 16.7648 13.4228 16.2766 13.6154 15.8227C13.8079 15.3689 14.0761 14.9701 14.4199 14.6262C14.7638 14.2824 15.1626 14.0142 15.6164 13.8217C16.0703 13.6291 16.5585 13.5329 17.0811 13.5329C18.1263 13.5329 19.0134 13.8973 19.7423 14.6262C20.4712 15.3551 20.8357 16.2422 20.8357 17.2874C20.8357 17.81 20.7394 18.3051 20.5469 18.7727C20.3543 19.2403 20.0861 19.646 19.7423 19.9899C19.3985 20.3337 18.9997 20.6019 18.5458 20.7944C18.092 20.987 17.6037 21.0832 17.0811 21.0832ZM23.1049 17.2874C23.1049 17.0399 23.0912 16.7854 23.0636 16.5241C23.0361 16.2628 22.9949 16.0222 22.9399 15.8021H24.6315V24.0951C24.6315 24.3152 24.5627 24.494 24.4252 24.6315C24.2877 24.769 24.1089 24.8378 23.8888 24.8378H10.2734C10.0534 24.8378 9.8746 24.769 9.73707 24.6315C9.59954 24.494 9.53077 24.3152 9.53077 24.0951V15.8021H11.2224C11.1674 16.0222 11.1261 16.2628 11.0986 16.5241C11.0711 16.7854 11.0573 17.0399 11.0573 17.2874C11.0573 18.1126 11.2155 18.8965 11.5318 19.6392C11.8481 20.3818 12.2745 21.0282 12.8108 21.5783C13.3472 22.1284 13.9867 22.5617 14.7294 22.878C15.472 23.1943 16.256 23.3525 17.0811 23.3525C17.9063 23.3525 18.6902 23.1943 19.4329 22.878C20.1755 22.5617 20.815 22.1284 21.3514 21.5783C21.8878 21.0282 22.3141 20.3818 22.6304 19.6392C22.9467 18.8965 23.1049 18.1126 23.1049 17.2874ZM17.2462 0C19.6392 0 21.8809 0.453846 23.9713 1.36154C26.0618 2.26923 27.8909 3.50012 29.4588 5.0542C31.0266 6.60828 32.2644 8.43054 33.172 10.521C34.0797 12.6114 34.5336 14.8532 34.5336 17.2462C34.5336 19.6392 34.0797 21.8809 33.172 23.9713C32.2644 26.0618 31.0266 27.8909 29.4588 29.4588C27.8909 31.0266 26.0618 32.2644 23.9713 33.172C21.8809 34.0797 19.6392 34.5336 17.2462 34.5336C14.8532 34.5336 12.6114 34.0797 10.521 33.172C8.43054 32.2644 6.60828 31.0266 5.0542 29.4588C3.50012 27.8909 2.26923 26.0618 1.36154 23.9713C0.453846 21.8809 0 19.6392 0 17.2462C0 14.8532 0.453846 12.6114 1.36154 10.521C2.26923 8.43054 3.50012 6.60828 5.0542 5.0542C6.60828 3.50012 8.43054 2.26923 10.521 1.36154C12.6114 0.453846 14.8532 0 17.2462 0ZM26.9007 9.73707C26.9007 9.10443 26.6807 8.56807 26.2406 8.12798C25.8005 7.68788 25.2641 7.46784 24.6315 7.46784H9.53077C8.89814 7.46784 8.36178 7.68788 7.92168 8.12798C7.48159 8.56807 7.26154 9.10443 7.26154 9.73707V24.8378C7.26154 25.4704 7.48159 26.0068 7.92168 26.4469C8.36178 26.887 8.89814 27.107 9.53077 27.107H24.6315C25.2641 27.107 25.8005 26.887 26.2406 26.4469C26.6807 26.0068 26.9007 25.4704 26.9007 24.8378V9.73707ZM23.8888 9.73707C24.1089 9.73707 24.2877 9.81271 24.4252 9.96399C24.5627 10.1153 24.6315 10.3009 24.6315 10.521V12.7902C24.6315 13.0103 24.5627 13.1891 24.4252 13.3266C24.2877 13.4641 24.1089 13.5329 23.8888 13.5329H21.6196C21.3995 13.5329 21.2139 13.4641 21.0626 13.3266C20.9113 13.1891 20.8357 13.0103 20.8357 12.7902V10.521C20.8357 10.3009 20.9113 10.1153 21.0626 9.96399C21.2139 9.81271 21.3995 9.73707 21.6196 9.73707H23.8888Z" fill="#692B14"/>
</svg>
