<svg width="35" height="35" viewBox="0 0 35 35" fill="none" xmlns="http://www.w3.org/2000/svg">
<path d="M17.2462 0C19.6392 0 21.8809 0.453846 23.9713 1.36154C26.0618 2.26923 27.8909 3.50012 29.4588 5.0542C31.0266 6.60828 32.2644 8.43054 33.172 10.521C34.0797 12.6114 34.5336 14.8532 34.5336 17.2462C34.5336 19.6392 34.0797 21.8809 33.172 23.9713C32.2644 26.0618 31.0266 27.8909 29.4588 29.4588C27.8909 31.0266 26.0618 32.2644 23.9713 33.172C21.8809 34.0797 19.6392 34.5336 17.2462 34.5336C14.8532 34.5336 12.6114 34.0797 10.521 33.172C8.43054 32.2644 6.60828 31.0266 5.0542 29.4588C3.50012 27.8909 2.26923 26.0618 1.36154 23.9713C0.453846 21.8809 0 19.6392 0 17.2462C0 14.8532 0.453846 12.6114 1.36154 10.521C2.26923 8.43054 3.50012 6.60828 5.0542 5.0542C6.60828 3.50012 8.43054 2.26923 10.521 1.36154C12.6114 0.453846 14.8532 0 17.2462 0ZM11.8825 12.9553H7.55035V26.9832H11.8825V12.9553ZM9.69581 11.8413C10.3009 11.8413 10.8167 11.635 11.243 11.2224C11.6694 10.8098 11.8825 10.3009 11.8825 9.69581C11.8825 9.09068 11.6694 8.58182 11.243 8.16923C10.8167 7.75665 10.3009 7.55035 9.69581 7.55035C9.09068 7.55035 8.58182 7.75665 8.16923 8.16923C7.75665 8.58182 7.55035 9.09068 7.55035 9.69581C7.55035 10.3009 7.75665 10.8098 8.16923 11.2224C8.58182 11.635 9.09068 11.8413 9.69581 11.8413ZM26.9832 18.8553C26.9832 17.865 26.7082 16.8955 26.1581 15.9465C25.6079 14.9976 24.8928 14.2755 24.0126 13.7804C23.2149 13.3403 22.2866 13.1065 21.2276 13.079C20.1687 13.0515 19.1991 13.2303 18.3189 13.6154V12.9553H14.028V26.9832H18.3189V18.4014L20.1343 17.535C20.3543 17.4249 20.65 17.3699 21.0213 17.3699C21.3927 17.3699 21.6884 17.4387 21.9084 17.5762C22.0734 17.6587 22.2385 17.8375 22.4035 18.1126C22.5685 18.3877 22.6511 18.6352 22.6511 18.8553V26.9832H26.9832V18.8553Z" fill="#6E7876"/>
</svg>
