<svg width="35" height="35" viewBox="0 0 35 35" fill="none" xmlns="http://www.w3.org/2000/svg">
<path d="M17.2668 0C19.6513 0 21.8918 0.452225 23.9885 1.35668C26.0852 2.26113 27.9146 3.49447 29.4769 5.0567C31.0391 6.61894 32.2725 8.44839 33.1769 10.5451C34.0814 12.6418 34.5336 14.8823 34.5336 17.2668C34.5336 19.6513 34.0814 21.8918 33.1769 23.9885C32.2725 26.0852 31.0391 27.9146 29.4769 29.4769C27.9146 31.0391 26.0852 32.2725 23.9885 33.1769C21.8918 34.0814 19.6513 34.5336 17.2668 34.5336C14.8823 34.5336 12.6418 34.0814 10.5451 33.1769C8.44839 32.2725 6.61894 31.0391 5.0567 29.4769C3.49447 27.9146 2.26113 26.0852 1.35668 23.9885C0.452225 21.8918 0 19.6513 0 17.2668C0 14.8823 0.452225 12.6418 1.35668 10.5451C2.26113 8.44839 3.49447 6.61894 5.0567 5.0567C6.61894 3.49447 8.44839 2.26113 10.5451 1.35668C12.6418 0.452225 14.8823 0 17.2668 0ZM7.5645 21.7479L12.7445 18.0479L7.5645 14.3479V21.7479ZM26.9691 23.3924L20.6379 18.8701L17.2668 21.2957L13.8545 18.8701L7.5645 23.3924V25.9002H26.9691V23.3924ZM26.9691 14.3479L21.789 18.0479L26.9691 21.7479V14.3479ZM26.9691 8.6334H7.5645V11.1412L17.2668 18.0479L26.9691 11.1412V8.6334Z" fill="#C1AB6A"/>
</svg>
