<svg width="643" height="128" viewBox="0 0 643 128" fill="none" xmlns="http://www.w3.org/2000/svg">
<path d="M51.2617 3.48457C58.22 3.48457 64.3297 5.18171 69.4211 8.40628C74.5126 11.6309 78.416 15.8737 81.1314 21.3046C83.8469 26.7354 85.2046 32.6754 85.2046 38.9549C85.2046 45.404 83.8469 51.1743 81.1314 56.6051C78.416 62.036 74.5126 66.2789 69.4211 69.5034C64.3297 72.728 58.22 74.2554 51.2617 74.2554H8.49371V125H0.517142V3.48457H51.2617ZM65.0086 63.224C68.912 60.5086 71.9669 57.1143 74.0034 52.8714C76.04 48.6286 77.0583 44.0463 77.0583 39.1246C77.0583 34.3726 76.04 29.7903 74.0034 25.3777C71.9669 21.1349 68.912 17.7406 65.0086 15.0251C60.9354 12.4794 56.1834 11.1217 50.7526 11.1217H8.49371V67.1274H50.7526C56.1834 67.1274 60.9354 65.9394 65.0086 63.224ZM121.893 121.097C115.784 117.193 111.032 111.762 107.637 104.974C104.243 98.1851 102.716 90.3783 102.716 81.7229C102.716 73.2371 104.243 65.6 107.637 58.6417C111.032 51.8531 115.784 46.4223 121.893 42.5189C128.003 38.6154 134.961 36.5789 143.108 36.5789C151.084 36.5789 158.212 38.6154 164.322 42.5189C170.432 46.4223 175.014 51.8531 178.408 58.6417C181.802 65.6 183.5 73.2371 183.5 81.7229C183.5 90.3783 181.802 98.1851 178.408 104.974C175.014 111.762 170.432 117.193 164.322 121.097C158.212 125.17 151.084 127.037 143.108 127.037C134.961 127.037 128.003 125.17 121.893 121.097ZM160.418 114.817C165.34 111.423 169.074 106.841 171.789 101.07C174.505 95.3 175.862 88.8509 175.862 81.7229C175.862 74.5949 174.505 68.1457 171.789 62.3754C169.074 56.6051 165.34 52.1926 160.418 48.7983C155.327 45.404 149.557 43.7069 143.108 43.7069C136.489 43.7069 130.718 45.404 125.797 48.7983C120.705 52.1926 116.972 56.6051 114.256 62.3754C111.541 68.1457 110.353 74.5949 110.353 81.7229C110.353 88.8509 111.541 95.3 114.256 101.07C116.972 106.841 120.705 111.423 125.797 114.817C130.718 118.211 136.489 119.739 143.108 119.739C149.557 119.739 155.327 118.211 160.418 114.817ZM218.576 38.6154V47.4406C220.104 44.216 222.48 41.6703 225.534 39.6337C228.589 37.5971 232.323 36.5789 237.075 36.5789C239.281 36.5789 241.318 36.9183 243.354 37.4274L240.809 44.0463H235.208C230.286 44.0463 226.213 45.5737 223.158 48.2891C220.104 51.1743 218.576 54.908 218.576 59.66V125H211.109V38.6154H218.576ZM269.086 45.7434H251.775V38.6154H269.086L270.444 17.9103H276.553V38.6154H299.295V45.7434H276.553V125H269.086V45.7434ZM311.448 45.5737V38.6154H326.383V23.3411C326.383 16.892 327.911 11.4611 331.135 7.21829C334.19 3.14514 339.112 0.938861 345.731 0.938861C348.107 0.938861 350.143 1.27829 351.84 1.61771C353.537 1.95714 355.065 2.636 356.592 3.48457V7.72743H346.919C338.093 7.72743 333.851 13.1583 333.851 24.02V38.6154H356.592V45.5737H333.851V125H326.383V45.5737H311.448ZM390.387 121.097C384.277 117.193 379.525 111.762 376.131 104.974C372.736 98.1851 371.209 90.3783 371.209 81.7229C371.209 73.2371 372.736 65.6 376.131 58.6417C379.525 51.8531 384.277 46.4223 390.387 42.5189C396.496 38.6154 403.455 36.5789 411.601 36.5789C419.577 36.5789 426.705 38.6154 432.815 42.5189C438.925 46.4223 443.507 51.8531 446.901 58.6417C450.296 65.6 451.993 73.2371 451.993 81.7229C451.993 90.3783 450.296 98.1851 446.901 104.974C443.507 111.762 438.925 117.193 432.815 121.097C426.705 125.17 419.577 127.037 411.601 127.037C403.455 127.037 396.496 125.17 390.387 121.097ZM428.912 114.817C433.833 111.423 437.567 106.841 440.283 101.07C442.998 95.3 444.356 88.8509 444.356 81.7229C444.356 74.5949 442.998 68.1457 440.283 62.3754C437.567 56.6051 433.833 52.1926 428.912 48.7983C423.82 45.404 418.05 43.7069 411.601 43.7069C404.982 43.7069 399.212 45.404 394.29 48.7983C389.199 52.1926 385.465 56.6051 382.749 62.3754C380.034 68.1457 378.846 74.5949 378.846 81.7229C378.846 88.8509 380.034 95.3 382.749 101.07C385.465 106.841 389.199 111.423 394.29 114.817C399.212 118.211 404.982 119.739 411.601 119.739C418.05 119.739 423.82 118.211 428.912 114.817ZM482.317 3.48457H489.785V125H482.317V3.48457ZM526.497 2.80571H534.813V13.4977H526.497V2.80571ZM527.007 38.6154H534.474V125H527.007V38.6154ZM581.149 121.097C575.04 117.193 570.288 111.762 566.893 104.974C563.499 98.1851 561.972 90.3783 561.972 81.7229C561.972 73.2371 563.499 65.6 566.893 58.6417C570.288 51.8531 575.04 46.4223 581.149 42.5189C587.259 38.6154 594.217 36.5789 602.364 36.5789C610.34 36.5789 617.468 38.6154 623.578 42.5189C629.688 46.4223 634.27 51.8531 637.664 58.6417C641.059 65.6 642.756 73.2371 642.756 81.7229C642.756 90.3783 641.059 98.1851 637.664 104.974C634.27 111.762 629.688 117.193 623.578 121.097C617.468 125.17 610.34 127.037 602.364 127.037C594.217 127.037 587.259 125.17 581.149 121.097ZM619.675 114.817C624.596 111.423 628.33 106.841 631.045 101.07C633.761 95.3 635.119 88.8509 635.119 81.7229C635.119 74.5949 633.761 68.1457 631.045 62.3754C628.33 56.6051 624.596 52.1926 619.675 48.7983C614.583 45.404 608.813 43.7069 602.364 43.7069C595.745 43.7069 589.975 45.404 585.053 48.7983C579.961 52.1926 576.228 56.6051 573.512 62.3754C570.797 68.1457 569.609 74.5949 569.609 81.7229C569.609 88.8509 570.797 95.3 573.512 101.07C576.228 106.841 579.961 111.423 585.053 114.817C589.975 118.211 595.745 119.739 602.364 119.739C608.813 119.739 614.583 118.211 619.675 114.817Z" fill="#282E29"/>
</svg>
