<?xml version="1.0" encoding="UTF-8"?>
<svg id="Layer_1" data-name="Layer 1" xmlns="http://www.w3.org/2000/svg" viewBox="0 0 584.12 474.12">
  <defs>
    <style>
      .cls-1 {
        fill: none;
        stroke: #622f1b;
        stroke-miterlimit: 10;
      }
    </style>
  </defs>
  <path class="cls-1" d="M454.7,233.7c-32.51,10.51-64.09,23.88-94.27,39.91-44.9,23.84-86.78,53.6-133.77,73.01-13.73,5.67-27.93,10.48-40.71,18.05-14.42,8.55-26.68,20.52-41.72,28.07-8.98,4.51-13.28,2.75-14.28,13.21-.92,9.57.14,19.92,1.53,29.4"/>
  <path class="cls-1" d="M445.44,385.48c-11.91-3.6-29.43-9.75-49.26-20.25-19.29-10.21-15.77-11.3-39.27-24.37-10.45-5.81-14.13-7.07-64.85-32.44-2.89-1.45-5.79-2.89-8.68-4.34-12.72-6.36-25.46-12.74-37.7-19.98-20.9-12.37-18.19-12.16-32.1-19.57-24.09-12.84-32.81-12.03-55.8-24.3-12.65-6.75-22.21-13.5-28.04-17.9"/>
  <path class="cls-1" d="M394.21,332.31c8.91,9.5,17.82,18.99,26.72,28.49,9.26,9.87,18.54,19.76,28.88,28.49,4.93,4.16,14.41,8.62,17.08,14.46,2.92,6.36,1.22,18.94,1.68,26.01"/>
  <path class="cls-1" d="M392.4,372.2c-2.55-43.56-.21-87.4,6.97-130.43"/>
  <path class="cls-1" d="M136.96,217.47c107.58-.12,215.16-.24,322.75-.36.34,4.87,0,10.03-.94,14.82-3.07-4.37-9.3-4.43-14.31-2.57s-9.3,5.32-14.3,7.17c-5.63,2.08-11.79,2.01-17.78,1.91-11.62-.19-23.24-.38-34.86-.57-69.76-1.14-139.51-2.28-209.27-3.42-6.7-.11-13.58-.25-19.81-2.72s-10.74-7.59-11.48-14.25Z"/>
  <path class="cls-1" d="M130.67,213.32c-5.11,72.84-6.18,145.97-3.18,218.93"/>
  <path class="cls-1" d="M471.56,218.86c2.88,32.11.25,65.8.22,98.49-.04,40.46-.24,80.93-.59,121.39"/>
  <path class="cls-1" d="M339.83,171.68c19.29-1.13,38.57-2.26,57.86-3.39,19.99-1.17,40.14-2.34,59.99.33,15.85,2.13,31.26,6.69,46.48,11.61,25.19,8.14,50.04,17.32,74.46,27.51-189.12-.9-378.25,1.96-567.25,8.57,10.06-15.27,20.12-30.54,30.18-45.81,63.74-2.61,130.6-4.15,194.34-1.53.21-7.09.52-15.92.97-26.1.74-16.69.49-22.15,4.56-26.11,3.86-3.77,8.98-3.8,17.22-3.93,25.15-.38,50.23,3.55,75.39,3.48,1.57,0,5.88-.06,8.09,2.71,2.51,3.15.95,8.22.44,10-6.15,21.39,2.96,41.67-8.64,52.79-5.13,4.92-11.32,5.17-58.85.93-14.65-1.31-29.13,4.75-35.86-3.35-2.22-2.68-2.95-5.82-3.21-8.15"/>
  <path class="cls-1" d="M215.81,166.87c2.58-3.18-2.49-8.08-.71-11.76.81-1.67,2.77-2.44,3.93-3.88,2.49-3.11.58-8.13,2.84-11.4.63-.91,1.52-1.59,2.21-2.45,1.27-1.58,1.76-3.64,2.18-5.62,1.33-6.28,2.43-12.71,5.28-18.46s7.84-10.85,14.15-12.02c.68-.13,1.41-.22,1.94-.68.38-.32.6-.79.75-1.26,1.03-3.3-1.08-7.57,1.36-10.03.61-.61,1.41-.98,2.16-1.41,4.62-2.67,7.16-7.9,8.45-13.07s1.61-10.57,3.15-15.68c3.17-10.53,11.78-19.25,22.27-22.55,1.95-.61,3.99-1.06,6.03-.86,6.61.63,10.66,7.32,13.66,13.24,3.22,6.36,6.51,13.08,6.23,20.21-.11,2.77-.77,5.55-.26,8.28s2.7,5.45,5.46,5.26c.5-.03,1.01-.16,1.51-.09,2.05.31,2.06,3.2,1.87,5.27-.27,3,.54,6.51,3.22,7.89,1.07.55,2.34.7,3.31,1.42,1.4,1.03,1.81,2.92,2.11,4.63.82,4.67,1.65,9.34,2.47,14.01"/>
  <path class="cls-1" d="M270.42,84.41c.44.89,1.09,2.15,1.96,3.61,2.55,4.27,6.4,10.77,12.68,12.45.89.24,1.8.39,2.71.4,3.02.02,5.85-1.62,7.94-3.8s3.53-4.88,4.96-7.54c.77-1.44,1.54-2.88,2.18-4.38,2.88-6.76,2.96-14.36,2.39-21.68-.06-.79-.14-1.62-.58-2.28-.42-.64-1.12-1.03-1.79-1.4-7.49-4.07-15.53-5.94-23.79-2.76-3.27,1.26-6.22,3.64-7.55,6.88-.76,1.86-.96,3.9-1.1,5.91-.45,6.75-.06,13.85.27,20.55.46,9.59,1.84,17.1,2.44,22.27"/>
  <path class="cls-1" d="M254.22,88.83c-1.91,1.08-2.26,4.12-.65,5.61,1.25,1.15,3.49,1.68,3.55,3.38"/>
  <path class="cls-1" d="M312.61,83.89c-.22,3.29-.43,6.67.56,9.82,2.26,7.19,10.34,11.89,11.12,19.39"/>
  <path class="cls-1" d="M259.95,82.64c-1.18,4.44-1.78,9.03-1.77,13.62,0,2.19.14,4.4-.26,6.56-.26,1.38-.73,2.72-1.08,4.08-.52,2.02-.75,4.11-.7,6.19"/>
  <path class="cls-1" d="M300.98,93.05c.34,3.24-2.06,6.03-3.78,8.81-2.44,3.94-3.66,8.94-1.99,13.27"/>
  <path class="cls-1" d="M283.72,107.72c1.6.95,3.71.21,5.13-.99s2.46-2.81,3.92-3.97"/>
  <path class="cls-1" d="M314.23,90.1c1.71-.22,3.33-1.13,4.41-2.47"/>
  <path class="cls-1" d="M255.8,102.8c-2.36.24-4.81-.55-6.58-2.12"/>
  <path class="cls-1" d="M216.2,242.05c-10.3-.86-20.67-.77-30.95.27-1.64.17-3.74.88-3.68,2.57"/>
  <path class="cls-1" d="M175.53,255.15c-6.15,5.53-6.99,15.29-13.13,20.83-1.46,1.32-3.17,2.34-4.63,3.67-2.33,2.12-3.92,4.91-5.62,7.56-4.97,7.74-11.22,14.64-18.43,20.35"/>
  <path class="cls-1" d="M123.53,317.07l-9.49-6.49c-4-2.73-8.03-5.49-11.37-9.01-3.82-4.03-6.65-8.99-8.15-14.34,2.45-.54,4.77-1.56,7.02-2.65,9.1-4.4,17.85-10.44,22.83-19.23"/>
  <path class="cls-1" d="M137.88,252.76l8.41-11.73"/>
  <path class="cls-1" d="M174.16,260.03c-1.93,11.34,7.13,21.26,11.16,32.04,4.43,11.84,2.8,25.37,7.7,37.02.11,1.24.22,2.49.33,3.73.21,2.34.4,4.8-.55,6.96-1.69,3.83-4.63,3.3-8.17,8.05-.73.99-4.58,6.15-2.64,9.23,1.69,2.69,6.72,2.12,7.24,2.06"/>
  <path class="cls-1" d="M217.67,347.37c.53-1.44,1.98-2.28,3-3.42,1.82-2.03,2.24-4.91,2.58-7.62.23-1.84.47-3.7.34-5.55-.13-1.9-.64-3.74-1.04-5.6-1.28-5.92-1.52-12-1.76-18.05"/>
  <path class="cls-1" d="M214.9,288.42l-3.24-13.18"/>
  <path class="cls-1" d="M192.04,342.66c2.83,2.35,6.37,3.84,10.03,4.2.74.07,1.83-.5,1.35-1.07"/>
  <path class="cls-1" d="M92.98,287.71c-1.6,1.08-3.9,2.25-6.75,2.45-3.23.24-4.51-.96-5.89-.05-2.29,1.51-2.15,7.08.08,10.9,2.39,4.08,6.69,5.46,7.88,5.74,3.27.78,6.69.57,10.04.36,2.66-.17,4.86-.27,6.35-.4"/>
  <path class="cls-1" d="M209.22,260.85c-.12-.24-.28-.61-.4-1.07-.17-.64-.26-.96-.11-1.14.28-.36,1.04.17,2.37.1.27-.01,1.25-.09,2.18-.66.59-.37.92-.78,1.26-1.21,2.5-3.1,2.92-3.08,3.04-3.95.17-1.3-.7-1.62-.6-2.83.1-1.15,1.04-2.37,3.44-3.6"/>
  <path class="cls-1" d="M226.49,248.71c-.02,6.23-4.91,11.82-4.62,18.05"/>
  <path class="cls-1" d="M219.71,276.53c-3.18,9.2-4.47,18.93-6.05,28.53-2.7,16.43-6.31,32.72-10.8,48.76"/>
  <path class="cls-1" d="M211.32,350.77c3.52-23.76,8.26-47.33,14.21-70.6"/>
  <path class="cls-1" d="M228.81,270.18c.15-2.52-.49-5.62,1.93-7.18,2.3-1.49,6.57-1.06,9.16-1.25,8.23-.63,16.47-1.07,24.72-1.37,14.06-.51,28.34,1.57,42.2-.85.67-.12,3.98-.74,6.24.96.33.24.96.72,1.36,1.56.44.92.2,1.44.34,3.83.04.72.08,1.41.21,2.35.16,1.19.2,1.82.28,3.1.02.26.04.75-.22,1.25,0,0-.2.38-.56.67-2.97,2.39-11.4,1.64-11.4,1.64-4.06-.36-8.16.18-12.24.11-6.87-.12-13.72.72-20.58,1.1-7.63.43-18.8.56-34.03-1.8"/>
  <path class="cls-1" d="M231.84,249.48c.02,4-2.99,7.71-2.65,11.7"/>
  <path class="cls-1" d="M232.54,253.78c4.81.27,9.64.15,14.42-.36,1.34-.14,2.67-.31,4.01-.48,1.96-.25,3.93-.5,5.89-.76"/>
  <path class="cls-1" d="M297.82,252.63c-.11,1.79-.02,3.58.26,5.35"/>
  <path class="cls-1" d="M303.46,251.9c-.25,2.28-.17,4.58.23,6.84"/>
  <path class="cls-1" d="M298.08,276.74c-.33,9.27.16,18.57,1.46,27.76"/>
  <path class="cls-1" d="M304.41,276.25c-.33,8.6-.18,17.23.47,25.81"/>
  <path class="cls-1" d="M298.96,316.44c.09,2.95.18,5.89.28,8.84.01.44.06.93.4,1.2.21.17.5.21.77.23,1.55.17,3.12.24,4.68.21.26,0,.54-.02.74-.18.28-.22.32-.62.32-.98,0-2.01-.35-4.02-1.04-5.91"/>
  <path class="cls-1" d="M307.21,276.25c1.04,3.74,4.99,5.96,7.59,8.95"/>
  <path class="cls-1" d="M312.6,275.46c1.01.48,1.85,1.26,2.34,2.21"/>
  <path class="cls-1" d="M318.28,300.5c-.27,6.09.11,12.26,1.1,18.11"/>
  <path class="cls-1" d="M319.28,326.59c-.35,8.01,3.13,15.71,3.72,23.71.15,2.06.14,4.23,1.12,6.05s3.42,3.07,5.17,1.97c-1.23-9.43-2.46-18.86-3.69-28.3"/>
  <path class="cls-1" d="M324.27,321.54c-1.3-7.83-.11-16.12-1.77-23.84"/>
  <path class="cls-1" d="M219.37,242.85c1.68.5,3.51,0,5.08-.79s3.01-1.82,4.63-2.51c.47-.2.97-.37,1.48-.41.76-.06,1.51.17,2.24.39,13.69,4.12,28.52,6.05,42.23,2,1.71-.5,3.39-1.1,5.15-1.4,1.72-.29,3.47-.29,5.21-.28,6.18.01,12.36.02,18.54.03,8.35.01,16.86.39,25.22.51,1.03.02,2.35.25,2.56,1.26.1.49-.12.98-.37,1.41-2.63,4.51-8.53,5.67-13.72,6.19-21.97,2.21-44.11,1.18-66.17.16-2.14-.1-4.3-.2-6.39-.66-1.14-.25-2.26-.6-3.41-.75-.99-.13-1.99-.1-2.99-.1-7.2,0-14.4-1.52-20.99-4.4.24-.55,1.14-.84,1.71-.67Z"/>
  <path class="cls-1" d="M312.46,256.26c-2.59-1.06-5.01-2.53-7.16-4.32"/>
  <path class="cls-1" d="M313.48,251.64c.43,4.74.85,9.49,1.28,14.23.73,8.1,1.45,16.2,2.08,24.3.14,1.84.28,3.67.42,5.51"/>
  <path class="cls-1" d="M319.26,250.5c1.56,9.66,2.05,19.46,2.54,29.24.23,4.72.47,9.43.7,14.15"/>
</svg>